<svg width="40" height="39" viewBox="0 0 40 39" fill="none" xmlns="http://www.w3.org/2000/svg">
<path d="M39 19.1364C39 21.5181 38.5086 23.8764 37.5537 26.0768C36.8042 27.8042 35.7806 29.4076 34.5216 30.8319C34.1768 31.222 33.8143 31.5986 33.435 31.9607C31.6707 33.6448 29.5762 34.9807 27.271 35.8922C24.9658 36.8036 22.4951 37.2727 20 37.2727C17.5049 37.2727 15.0342 36.8036 12.729 35.8922C10.4238 34.9807 8.32928 33.6448 6.56497 31.9607C6.18566 31.5986 5.8232 31.222 5.4784 30.8319C4.21943 29.4076 3.19584 27.8042 2.44629 26.0768C1.49145 23.8764 1 21.5181 1 19.1364C1 14.3263 3.00178 9.71325 6.56497 6.31202C10.1282 2.91079 14.9609 1 20 1C25.0391 1 29.8718 2.91079 33.435 6.31202C36.9982 9.71325 39 14.3263 39 19.1364Z" fill="white"/>
<path d="M5.47767 30.8323C9.90766 28.4422 14.9113 27.1896 20 27.197C25.2778 27.197 30.2326 28.5169 34.5223 30.8323M26.3333 15.1061C26.3333 16.7094 25.6661 18.2471 24.4783 19.3808C23.2906 20.5146 21.6797 21.1515 20 21.1515C18.3203 21.1515 16.7094 20.5146 15.5217 19.3808C14.3339 18.2471 13.6667 16.7094 13.6667 15.1061C13.6667 13.5027 14.3339 11.965 15.5217 10.8313C16.7094 9.69754 18.3203 9.06061 20 9.06061C21.6797 9.06061 23.2906 9.69754 24.4783 10.8313C25.6661 11.965 26.3333 13.5027 26.3333 15.1061ZM39 19.1364C39 21.5181 38.5086 23.8764 37.5537 26.0768C36.5989 28.2773 35.1993 30.2766 33.435 31.9607C31.6707 33.6448 29.5762 34.9807 27.271 35.8922C24.9658 36.8036 22.4951 37.2727 20 37.2727C17.5049 37.2727 15.0342 36.8036 12.729 35.8922C10.4238 34.9807 8.32928 33.6448 6.56497 31.9607C4.80066 30.2766 3.40113 28.2773 2.44629 26.0768C1.49145 23.8764 1 21.5181 1 19.1364C1 14.3263 3.00178 9.71325 6.56497 6.31202C10.1282 2.91079 14.9609 1 20 1C25.0391 1 29.8718 2.91079 33.435 6.31202C36.9982 9.71325 39 14.3263 39 19.1364Z" stroke="#04518C" stroke-width="2" stroke-linecap="round" stroke-linejoin="round"/>
</svg>
