<svg width="226" height="183" viewBox="0 0 226 183" fill="none" xmlns="http://www.w3.org/2000/svg">
<rect width="226" height="183" fill="white"/>
<path d="M87.8831 16.146V24H88.8731V17.697H88.8951L92.9981 24H94.1421V16.146H93.1521V22.515H93.1301L88.9941 16.146H87.8831ZM99.6276 20.612H96.3606C96.3753 20.392 96.4229 20.1867 96.5036 19.996C96.5843 19.798 96.6943 19.6257 96.8336 19.479C96.9729 19.3323 97.1379 19.2187 97.3286 19.138C97.5266 19.05 97.7466 19.006 97.9886 19.006C98.2233 19.006 98.4359 19.05 98.6266 19.138C98.8246 19.2187 98.9933 19.3323 99.1326 19.479C99.2793 19.6183 99.3929 19.787 99.4736 19.985C99.5616 20.183 99.6129 20.392 99.6276 20.612ZM100.53 22.196H99.6056C99.5249 22.57 99.3563 22.8487 99.0996 23.032C98.8503 23.2153 98.5276 23.307 98.1316 23.307C97.8236 23.307 97.5559 23.2557 97.3286 23.153C97.1013 23.0503 96.9143 22.9147 96.7676 22.746C96.6209 22.57 96.5146 22.372 96.4486 22.152C96.3826 21.9247 96.3533 21.6863 96.3606 21.437H100.618C100.632 21.0923 100.599 20.7293 100.519 20.348C100.445 19.9667 100.306 19.6147 100.101 19.292C99.9026 18.9693 99.6349 18.7053 99.2976 18.5C98.9676 18.2873 98.5496 18.181 98.0436 18.181C97.6549 18.181 97.2956 18.2543 96.9656 18.401C96.6429 18.5477 96.3606 18.753 96.1186 19.017C95.8839 19.281 95.7006 19.5927 95.5686 19.952C95.4366 20.3113 95.3706 20.7073 95.3706 21.14C95.3853 21.5727 95.4476 21.9723 95.5576 22.339C95.6749 22.7057 95.8473 23.021 96.0746 23.285C96.3019 23.549 96.5806 23.7543 96.9106 23.901C97.2479 24.0477 97.6439 24.121 98.0986 24.121C98.7439 24.121 99.2793 23.9597 99.7046 23.637C100.13 23.3143 100.405 22.834 100.53 22.196ZM107.219 24L109.034 18.313H108.066L106.79 22.966H106.768L105.58 18.313H104.557L103.413 22.966H103.391L102.104 18.313H101.07L102.896 24H103.908L105.052 19.479H105.074L106.229 24H107.219ZM113.182 16.146V24H114.227V16.146H113.182ZM119.692 20.139H120.66C120.623 19.8017 120.535 19.512 120.396 19.27C120.257 19.0207 120.077 18.8153 119.857 18.654C119.644 18.4927 119.395 18.3753 119.109 18.302C118.83 18.2213 118.53 18.181 118.207 18.181C117.76 18.181 117.367 18.2617 117.03 18.423C116.693 18.577 116.41 18.7933 116.183 19.072C115.963 19.3433 115.798 19.666 115.688 20.04C115.578 20.4067 115.523 20.8027 115.523 21.228C115.523 21.6533 115.578 22.0457 115.688 22.405C115.805 22.757 115.974 23.0613 116.194 23.318C116.421 23.5747 116.7 23.7727 117.03 23.912C117.367 24.0513 117.752 24.121 118.185 24.121C118.911 24.121 119.483 23.9303 119.901 23.549C120.326 23.1677 120.59 22.625 120.693 21.921H119.736C119.677 22.361 119.516 22.702 119.252 22.944C118.995 23.186 118.636 23.307 118.174 23.307C117.881 23.307 117.628 23.2483 117.415 23.131C117.202 23.0137 117.03 22.8597 116.898 22.669C116.766 22.471 116.667 22.2473 116.601 21.998C116.542 21.7487 116.513 21.492 116.513 21.228C116.513 20.942 116.542 20.667 116.601 20.403C116.66 20.1317 116.755 19.8933 116.887 19.688C117.026 19.4827 117.21 19.3177 117.437 19.193C117.664 19.0683 117.947 19.006 118.284 19.006C118.68 19.006 118.995 19.105 119.23 19.303C119.465 19.501 119.619 19.7797 119.692 20.139ZM122.421 21.162C122.421 20.8173 122.465 20.513 122.553 20.249C122.648 19.9777 122.777 19.7503 122.938 19.567C123.099 19.3837 123.286 19.2443 123.499 19.149C123.719 19.0537 123.95 19.006 124.192 19.006C124.434 19.006 124.661 19.0537 124.874 19.149C125.094 19.2443 125.285 19.3837 125.446 19.567C125.607 19.7503 125.732 19.9777 125.82 20.249C125.915 20.513 125.963 20.8173 125.963 21.162C125.963 21.5067 125.915 21.8147 125.82 22.086C125.732 22.35 125.607 22.5737 125.446 22.757C125.285 22.933 125.094 23.0687 124.874 23.164C124.661 23.2593 124.434 23.307 124.192 23.307C123.95 23.307 123.719 23.2593 123.499 23.164C123.286 23.0687 123.099 22.933 122.938 22.757C122.777 22.5737 122.648 22.35 122.553 22.086C122.465 21.8147 122.421 21.5067 122.421 21.162ZM121.431 21.162C121.431 21.58 121.49 21.9687 121.607 22.328C121.724 22.6873 121.9 23.0027 122.135 23.274C122.37 23.538 122.659 23.747 123.004 23.901C123.349 24.0477 123.745 24.121 124.192 24.121C124.647 24.121 125.043 24.0477 125.38 23.901C125.725 23.747 126.014 23.538 126.249 23.274C126.484 23.0027 126.66 22.6873 126.777 22.328C126.894 21.9687 126.953 21.58 126.953 21.162C126.953 20.744 126.894 20.3553 126.777 19.996C126.66 19.6293 126.484 19.314 126.249 19.05C126.014 18.7787 125.725 18.566 125.38 18.412C125.043 18.258 124.647 18.181 124.192 18.181C123.745 18.181 123.349 18.258 123.004 18.412C122.659 18.566 122.37 18.7787 122.135 19.05C121.9 19.314 121.724 19.6293 121.607 19.996C121.49 20.3553 121.431 20.744 121.431 21.162ZM128.056 18.313V24H128.991V20.788C128.991 20.5313 129.024 20.2967 129.09 20.084C129.163 19.864 129.269 19.6733 129.409 19.512C129.548 19.3507 129.72 19.226 129.926 19.138C130.138 19.05 130.388 19.006 130.674 19.006C131.033 19.006 131.315 19.1087 131.521 19.314C131.726 19.5193 131.829 19.798 131.829 20.15V24H132.764V20.26C132.764 19.952 132.731 19.6733 132.665 19.424C132.606 19.1673 132.5 18.9473 132.346 18.764C132.192 18.5807 131.99 18.4377 131.741 18.335C131.491 18.2323 131.18 18.181 130.806 18.181C129.962 18.181 129.346 18.5257 128.958 19.215H128.936V18.313H128.056ZM134.74 22.207H133.805C133.82 22.559 133.893 22.8597 134.025 23.109C134.157 23.351 134.333 23.549 134.553 23.703C134.773 23.8497 135.026 23.956 135.312 24.022C135.598 24.088 135.899 24.121 136.214 24.121C136.5 24.121 136.786 24.0917 137.072 24.033C137.365 23.9817 137.626 23.8863 137.853 23.747C138.088 23.6077 138.275 23.4243 138.414 23.197C138.561 22.9697 138.634 22.6837 138.634 22.339C138.634 22.0677 138.579 21.8403 138.469 21.657C138.366 21.4737 138.227 21.3233 138.051 21.206C137.882 21.0813 137.684 20.9823 137.457 20.909C137.237 20.8357 137.01 20.7733 136.775 20.722C136.555 20.6707 136.335 20.623 136.115 20.579C135.895 20.5277 135.697 20.469 135.521 20.403C135.345 20.3297 135.198 20.2417 135.081 20.139C134.971 20.029 134.916 19.8933 134.916 19.732C134.916 19.5853 134.953 19.468 135.026 19.38C135.099 19.2847 135.195 19.2113 135.312 19.16C135.429 19.1013 135.558 19.061 135.697 19.039C135.844 19.017 135.987 19.006 136.126 19.006C136.28 19.006 136.43 19.0243 136.577 19.061C136.731 19.0903 136.87 19.1417 136.995 19.215C137.12 19.2883 137.222 19.3873 137.303 19.512C137.384 19.6293 137.431 19.7797 137.446 19.963H138.381C138.359 19.6183 138.286 19.3323 138.161 19.105C138.036 18.8703 137.868 18.687 137.655 18.555C137.45 18.4157 137.211 18.3203 136.94 18.269C136.669 18.2103 136.372 18.181 136.049 18.181C135.8 18.181 135.547 18.214 135.29 18.28C135.041 18.3387 134.813 18.434 134.608 18.566C134.41 18.6907 134.245 18.8557 134.113 19.061C133.988 19.2663 133.926 19.512 133.926 19.798C133.926 20.1647 134.018 20.4507 134.201 20.656C134.384 20.8613 134.612 21.0227 134.883 21.14C135.162 21.25 135.462 21.338 135.785 21.404C136.108 21.4627 136.405 21.5323 136.676 21.613C136.955 21.6863 137.186 21.7853 137.369 21.91C137.552 22.0347 137.644 22.218 137.644 22.46C137.644 22.636 137.6 22.7827 137.512 22.9C137.424 23.01 137.31 23.0943 137.171 23.153C137.039 23.2117 136.892 23.252 136.731 23.274C136.57 23.296 136.416 23.307 136.269 23.307C136.078 23.307 135.891 23.2887 135.708 23.252C135.532 23.2153 135.371 23.1567 135.224 23.076C135.085 22.988 134.971 22.8743 134.883 22.735C134.795 22.5883 134.747 22.4123 134.74 22.207Z" fill="black"/>
<g clip-path="url(#clip0)">
<path d="M68.0425 72.4266C67.929 71.7156 67.2606 71.2312 66.5496 71.3446C65.8386 71.4581 65.3542 72.1265 65.4677 72.8375C65.4689 72.8453 65.4702 72.853 65.4716 72.8607C66.7992 80.676 61.5399 88.0878 53.7245 89.4155C45.9091 90.7431 38.4974 85.4838 37.1697 77.6684C35.8421 69.8531 41.1015 62.4413 48.9168 61.1137C53.723 60.2972 58.6152 61.9761 61.9073 65.5717L56.132 67.496C55.4487 67.7233 55.0792 68.4614 55.3065 69.1446C55.3066 69.1447 55.3067 69.145 55.3067 69.1451C55.5341 69.8283 56.2721 70.1978 56.9553 69.9706C56.9556 69.9705 56.9557 69.9704 56.9559 69.9704L64.778 67.363C65.3106 67.1857 65.6699 66.6872 65.6698 66.1259V58.3037C65.6698 57.5837 65.0861 57 64.3661 57C63.646 57 63.0623 57.5837 63.0623 58.3037V63.0661C56.3484 56.6803 45.729 56.9464 39.3433 63.6603C32.9575 70.3742 33.2235 80.9936 39.9375 87.3794C46.6515 93.7652 57.2708 93.4992 63.6566 86.7852C67.298 82.9566 68.9231 77.6364 68.0425 72.4266Z" fill="black"/>
</g>
<path d="M135 68.3333H165" stroke="black" stroke-width="1.66667" stroke-linecap="round" stroke-linejoin="round"/>
<path d="M145 68.3333V90" stroke="black" stroke-width="1.66667" stroke-linecap="round" stroke-linejoin="round"/>
<rect x="165" y="60" width="30" height="30" rx="1.66667" transform="rotate(90 165 60)" stroke="black" stroke-width="1.66667" stroke-linecap="round" stroke-linejoin="round"/>
<path d="M155 68.3333V90" stroke="black" stroke-width="1.66667" stroke-linecap="round" stroke-linejoin="round"/>
<rect x="89" y="60" width="30" height="30" rx="2" stroke="black" stroke-width="1.5" stroke-linejoin="round"/>
<path d="M102.5 67.5H111.5" stroke="black" stroke-width="1.5" stroke-linecap="round"/>
<path d="M102.5 75H111.5" stroke="black" stroke-width="1.5" stroke-linecap="round"/>
<path d="M102.5 82.5H111.5" stroke="black" stroke-width="1.5" stroke-linecap="round"/>
<path fill-rule="evenodd" clip-rule="evenodd" d="M96.5 69C97.3284 69 98 68.3284 98 67.5C98 66.6716 97.3284 66 96.5 66C95.6716 66 95 66.6716 95 67.5C95 68.3284 95.6716 69 96.5 69Z" fill="black"/>
<path fill-rule="evenodd" clip-rule="evenodd" d="M96.5 76.5C97.3284 76.5 98 75.8284 98 75C98 74.1716 97.3284 73.5 96.5 73.5C95.6716 73.5 95 74.1716 95 75C95 75.8284 95.6716 76.5 96.5 76.5Z" fill="black"/>
<path fill-rule="evenodd" clip-rule="evenodd" d="M96.5 84C97.3284 84 98 83.3284 98 82.5C98 81.6716 97.3284 81 96.5 81C95.6716 81 95 81.6716 95 82.5C95 83.3284 95.6716 84 96.5 84Z" fill="black"/>
<defs>
<clipPath id="clip0">
<rect width="35" height="35" fill="white" transform="translate(34 57)"/>
</clipPath>
</defs>
</svg>

