<svg width="40" height="40" viewBox="0 0 40 40" fill="none" xmlns="http://www.w3.org/2000/svg">
<path d="M332.731 41.0181H165.655L132.594 0H11.8029C5.48169 0 0.350647 4.54129 0.350647 10.149V260.523C0.806887 260.535 1.26313 260.559 1.70614 260.582L67.927 100.529C69.1437 96.5273 73.2366 93.7556 77.9114 93.7556H344.184V51.1671C344.184 45.5594 339.052 41.0181 332.731 41.0181Z" fill="#04518C"/>
<g clip-path="url(#clip0)">
<path d="M269.267 218.43C265.763 218.43 262.266 218.776 258.832 219.465C256.243 206.644 247.871 195.707 236.117 189.787C224.365 183.867 210.524 183.619 198.562 189.112C187.736 159.529 154.787 144.255 124.967 154.994C95.1475 165.734 79.7512 198.424 90.5768 228.005C64.4555 228.824 43.8218 250.274 44.2124 276.197C44.6054 302.123 65.88 322.945 92.0154 322.987H269.267C298.369 322.987 321.964 299.582 321.964 270.709C321.964 241.836 298.369 218.43 269.267 218.43Z" fill="#04518C"/>
<path d="M148.711 346.59V314.687C148.711 310.669 150.089 307.282 152.846 304.525C155.603 301.768 158.991 300.389 163.008 300.389H220.316C221.577 300.389 222.64 299.956 223.507 299.089C224.452 298.144 224.925 297.041 224.925 295.781V275.812C224.925 274.551 224.452 273.488 223.507 272.621C222.64 271.676 221.577 271.203 220.316 271.203H163.008C161.748 271.203 160.645 271.676 159.7 272.621C158.833 273.488 158.4 274.551 158.4 275.812V279.12H148.711V275.812C148.711 271.794 150.089 268.407 152.846 265.65C155.603 262.814 158.991 261.396 163.008 261.396H220.316C224.255 261.396 227.603 262.814 230.36 265.65C233.196 268.407 234.614 271.794 234.614 275.812V295.781C234.614 299.72 233.196 303.107 230.36 305.943C227.603 308.7 224.255 310.078 220.316 310.078H163.008C161.748 310.078 160.645 310.551 159.7 311.496C158.833 312.363 158.4 313.426 158.4 314.687V332.293C158.4 333.553 158.833 334.656 159.7 335.601C160.645 336.468 161.748 336.901 163.008 336.901H234.614V346.59H148.711Z" fill="#2193EB"/>
</g>
<line x1="176.524" y1="123.687" x2="416.986" y2="123.687" stroke="#04518C" stroke-width="8.05644" stroke-linecap="round"/>
<line x1="4.02822" y1="-4.02822" x2="195.404" y2="-4.02822" transform="matrix(-0.439809 0.898091 -0.917003 -0.39888 414.832 121.784)" stroke="#04518C" stroke-width="8.05644" stroke-linecap="round" stroke-linejoin="round"/>
<defs>
<clipPath id="clip0">
<rect width="277.756" height="275.552" fill="white" transform="translate(44.2069 123.998)"/>
</clipPath>
</defs>
</svg>

